<?xml version="1.0" encoding="UTF-8"?>
<!DOCTYPE svg PUBLIC "-//W3C//DTD SVG 1.1//EN" "http://www.w3.org/Graphics/SVG/1.1/DTD/svg11.dtd">
<!-- Creator: CorelDRAW -->
<svg xmlns="http://www.w3.org/2000/svg" xml:space="preserve" width="1126px" height="1126px" version="1.1" style="shape-rendering:geometricPrecision; text-rendering:geometricPrecision; image-rendering:optimizeQuality; fill-rule:evenodd; clip-rule:evenodd"
viewBox="0 0 2193.06 2193.06"
 xmlns:xlink="http://www.w3.org/1999/xlink"
 xmlns:xodm="http://www.corel.com/coreldraw/odm/2003">
 <defs>
  <style type="text/css">
   <![CDATA[
    .fil2 {fill:black}
    .fil0 {fill:#E6E6E6}
    .fil1 {fill:#EC6424}
   ]]>
  </style>
 </defs>
 <g id="Layer_x0020_1">
  <metadata id="CorelCorpID_0Corel-Layer"/>
  <rect class="fil0" width="2193.06" height="2193.06"/>
  <g id="_105553387078912">
   <path class="fil1" d="M1395.36 1464.72c75.52,7.52 187.82,0.98 267.31,0.98 77.92,0 170.8,1.7 235.36,-28.72 123.4,-58.15 143.44,-279.61 18.57,-348.14 -59.06,-32.41 -152.3,-38.24 -222.01,-47.15 -70.9,-9.06 -171.23,-16.03 -179.69,-84.78 -5.09,-41.45 18.41,-71.81 48.27,-81.8 40.52,-13.54 354.96,7.14 390.97,-7 9.1,-25.87 2.76,-103.19 2.47,-137.43 -46.26,-3.95 -241.69,-1.35 -302.5,-1.35 -147.4,0 -248.95,48.79 -275.58,178.75 -6.36,31.07 -6.82,80.22 2.49,108.9 48.63,149.91 273.28,123.44 405.24,159.15 112.34,30.42 65.64,119.05 45.76,134.83 -31.84,25.3 -161.09,14.63 -212.14,14.63 -73.85,0 -152.44,-2.58 -225.94,0.44l1.42 138.69zm-577.11 -593.6c69.38,-5.04 152.98,-0.92 223.93,-0.98 39.85,-0.04 69.47,-5.12 94.29,18.74 18.4,17.69 32.28,44.32 22.75,78.77 -14.65,52.93 -86.73,61.9 -147.28,70.19l-193.81 28.15 0.62 158.28c3.14,-3.14 3.02,-3.32 6.6,-8.12l15.72 -18.92c86.44,-67.12 449.84,1.04 461.06,-222.55 5.76,-114.71 -55.45,-195.05 -138.27,-224.79 -92.26,-33.14 -239.71,-18.58 -345.22,-20.87l-0.39 142.1z"/>
   <path class="fil2" d="M818.75 1224.27l-0.62 -158.28 0.12 -194.87 0.39 -142.1 -0.64 -138.23c-18.79,-5.52 -50.4,-5.92 -69.71,0.25l-1.19 469.75c-51.65,1.93 -459.24,3.76 -482.84,-2.21l-0.5 -328.43 -69.14 0.39c-3.14,69.82 -4.38,709.61 2.29,735.44l64.68 -1.2c10.91,-42.64 -5.39,-265.62 4.13,-331.8l482.4 -0.23 1.55 473.78 68.76 -1.06 0.32 -381.2z"/>
  </g>
 </g>
</svg>
